<?xml version="1.0" standalone="no"?><!DOCTYPE svg PUBLIC "-//W3C//DTD SVG 1.1//EN" "http://www.w3.org/Graphics/SVG/1.1/DTD/svg11.dtd"><svg t="1635340275887" class="icon" viewBox="0 0 1024 1024" version="1.1" xmlns="http://www.w3.org/2000/svg" p-id="2780" xmlns:xlink="http://www.w3.org/1999/xlink" width="200" height="200"><defs><style type="text/css"></style></defs><path d="M789.333333 64a170.666667 170.666667 0 1 1-170.666666 170.666667 170.666667 170.666667 0 0 1 170.666666-170.666667m0-64a234.666667 234.666667 0 1 0 234.666667 234.666667A234.666667 234.666667 0 0 0 789.333333 0zM896 618.666667a64 64 0 0 1 64 64v213.333333a64 64 0 0 1-64 64H682.666667a64 64 0 0 1-64-64V682.666667a64 64 0 0 1 64-64h213.333333m0-64H682.666667a128 128 0 0 0-128 128v213.333333a128 128 0 0 0 128 128h213.333333a128 128 0 0 0 128-128V682.666667a128 128 0 0 0-128-128zM341.333333 618.666667a64 64 0 0 1 64 64v213.333333a64 64 0 0 1-64 64H128a64 64 0 0 1-64-64V682.666667a64 64 0 0 1 64-64h213.333333m0-64H128a128 128 0 0 0-128 128v213.333333a128 128 0 0 0 128 128h213.333333a128 128 0 0 0 128-128V682.666667a128 128 0 0 0-128-128zM341.333333 64a64 64 0 0 1 64 64v213.333333a64 64 0 0 1-64 64H128a64 64 0 0 1-64-64V128a64 64 0 0 1 64-64h213.333333m0-64H128a128 128 0 0 0-128 128v213.333333a128 128 0 0 0 128 128h213.333333a128 128 0 0 0 128-128V128a128 128 0 0 0-128-128z" fill="#4C4F54" p-id="2781"></path></svg>