<?xml version="1.0" standalone="no"?><!DOCTYPE svg PUBLIC "-//W3C//DTD SVG 1.1//EN" "http://www.w3.org/Graphics/SVG/1.1/DTD/svg11.dtd"><svg t="1635340226328" class="icon" viewBox="0 0 1024 1024" version="1.1" xmlns="http://www.w3.org/2000/svg" p-id="2443" xmlns:xlink="http://www.w3.org/1999/xlink" width="200" height="200"><defs><style type="text/css"></style></defs><path d="M277.474213 496.406645C275.390336 496.406645 273.74848 496.832108 272.457307 497.549959 274.209335 496.809616 276.078245 496.406645 278.004919 496.406645L277.474213 496.406645 277.474213 496.406645ZM853.179538 725.785626C853.260142 724.720172 853.451319 723.676215 853.766199 722.668535 853.42133 723.129381 853.239515 724.116908 853.179538 725.785626L853.179538 725.785626ZM891.586944 302.290884C891.601938 302.232781 891.601938 302.159684 891.601938 302.101581L891.601938 301.404347C891.601938 301.706107 891.601938 302.005992 891.586944 302.290884L891.586944 302.290884ZM853.159387 302.202792C853.159387 302.262769 853.159387 302.320872 853.172517 302.386472 853.159387 302.064095 853.159387 301.734221 853.159387 301.404347L853.159387 302.202792 853.159387 302.202792ZM876.336037 878.31755C870.929499 838.062731 859.104713 799.194478 841.19755 762.791685 837.697536 755.674774 833.986597 748.678784 830.055296 741.818494 830.045897 741.798341 830.035145 741.776843 830.008265 741.75669 812.962341 712.884628 792.046921 686.076297 767.66912 662.149932L767.658368 662.139184C762.357979 656.938207 756.899035 651.862186 751.278866 646.93933 711.196014 611.818306 664.921984 585.770437 615.577893 569.931043 624.50997 564.981317 633.149147 559.439075 641.445723 553.29894 650.899109 546.333853 659.894327 538.598897 668.354816 530.138412 712.839205 485.647303 737.348681 426.488397 737.348681 363.56614 737.348681 300.643884 712.839205 241.484977 668.354816 196.995211 624.667173 153.312934 566.841088 128.902881 505.210002 128.021497 504.233234 128.010748 503.252425 128 502.275639 128 501.29483 128 500.318062 128.010748 499.34261 128.021497 437.711543 128.902881 379.880082 153.312934 336.197797 196.995211 291.713408 241.484977 267.202597 300.643884 267.202597 363.56614 267.202597 426.488397 291.713408 485.647303 336.197797 530.138412 344.658286 538.598897 353.653522 546.333853 363.100178 553.29894 371.398089 559.439075 380.042661 564.981317 388.974738 569.931043 339.630629 585.770437 293.355264 611.818306 253.273765 646.93933 247.653595 651.862186 242.189275 656.938207 236.894245 662.139184 212.494939 686.087045 191.553993 712.916875 174.495982 741.818494 170.566034 748.678784 166.855077 755.674774 163.349705 762.791685 145.441207 799.194478 133.623113 838.062731 128.2112 878.31755 126.484718 891.213173 135.532343 903.068871 148.422583 904.800737 149.482661 904.943157 150.548133 905.015709 151.593417 905.015709 152.548699 905.015709 153.482496 904.96331 154.416274 904.842388 163.737984 902.812248 171.263342 895.21165 172.722469 885.230239 183.581239 810.719656 219.091895 743.010245 270.13696 691.450593 330.718702 630.240049 413.16981 591.769496 502.275639 591.616327L502.779483 591.616327C591.691831 591.921318 673.954834 630.355597 734.415671 691.450593 785.45536 743.010245 820.971392 810.719656 831.830162 885.230239 833.289271 895.191495 840.783726 902.780003 850.078574 904.832984 850.098725 904.832984 850.109477 904.842388 850.130981 904.842388 851.064759 904.96331 852.003913 905.015709 852.959195 905.015709 854.004498 905.015709 855.064576 904.943157 856.13003 904.800737 869.018935 903.068871 878.067913 891.213173 876.336037 878.31755L876.336037 878.31755ZM501.771794 552.02389C501.29483 552.02389 500.821888 552.02389 500.350299 552.01314 412.429513 551.366881 334.041362 490.282633 312.616741 408.344773 312.38027 407.452641 312.145134 406.54976 311.930167 405.646877 308.575269 392.100965 306.791003 378.025684 306.791003 363.56614 306.791003 349.106597 308.575269 334.868743 311.930167 321.086362 312.145134 320.161982 312.38027 319.249695 312.616741 318.336066 334.15691 234.346569 413.274606 167.588407 501.771794 167.588407L502.779483 167.588407C591.272631 167.588407 670.395703 234.346569 691.93589 318.336066 692.171008 319.249695 692.407479 320.161982 692.622446 321.086362 695.976009 334.868743 697.760274 349.106597 697.760274 363.56614 697.760274 378.025684 695.976009 392.100965 692.622446 405.646877 692.407479 406.54976 692.171008 407.452641 691.93589 408.344773 670.51125 490.282633 592.123118 551.366881 504.196955 552.01314 503.393499 552.02389 502.586002 552.02389 501.771794 552.02389L501.771794 552.02389Z" p-id="2444"></path></svg>