<?xml version="1.0" standalone="no"?><!DOCTYPE svg PUBLIC "-//W3C//DTD SVG 1.1//EN" "http://www.w3.org/Graphics/SVG/1.1/DTD/svg11.dtd"><svg t="1635340243337" class="icon" viewBox="0 0 1024 1024" version="1.1" xmlns="http://www.w3.org/2000/svg" p-id="2610" xmlns:xlink="http://www.w3.org/1999/xlink" width="200" height="200"><defs><style type="text/css"></style></defs><path d="M404.923385 923.635275C359.522269 923.635275 322.588659 887.075302 322.588659 842.132782 322.588659 797.190259 359.522269 760.630287 404.923385 760.630287 450.319921 760.630287 487.253533 797.190259 487.253533 842.132782 487.25811 887.075302 450.319921 923.635275 404.923385 923.635275L404.923385 923.635275ZM405.882394 796.4236C381.45453 796.4236 361.585819 816.490584 361.585819 841.165241 361.585819 865.839899 381.45453 885.906884 405.882394 885.906884 430.303342 885.906884 450.172052 865.839899 450.172052 841.165241 450.172052 816.490584 430.310257 796.4236 405.882394 796.4236L405.882394 796.4236Z" p-id="2611"></path><path d="M780.65675 923.635275C735.260213 923.635275 698.326603 887.075302 698.326603 842.132782 698.326603 797.190259 735.260213 760.630287 780.65675 760.630287 826.057865 760.630287 862.992618 797.190259 862.992618 842.132782 862.992618 887.075302 826.057865 923.635275 780.65675 923.635275L780.65675 923.635275ZM782.714907 796.4236C758.671537 796.4236 739.103212 816.180325 739.103212 840.473481 739.103212 864.766638 758.671537 884.523363 782.714907 884.523363 806.765087 884.523363 826.326603 864.766638 826.326603 840.473481 826.326603 816.180325 806.765087 796.4236 782.714907 796.4236L782.714907 796.4236Z" p-id="2612"></path><path d="M335.282732 698.502151C324.032731 686.722516 250.425598 181.006717 250.425598 181.006717 248.767345 170.861188 236.713124 163.418371 228.290252 157.620926 199.541476 137.814855 140.094992 143.25276 119.615739 147.019531L109.714286 113.941007C110.671014 113.765157 133.523778 109.557081 162.272554 109.433874 192.891959 109.296606 201.654233 105.649913 222.372027 109.433874 229.378541 110.713565 254.234906 117.312274 260.056554 121.311677 280.168451 135.128772 288.130529 157.047453 292.038696 181.006717L366.839285 638.591594C366.839285 638.591594 370.233968 669.386898 375.128618 674.312934 380.595474 679.813564 410.442293 680.132796 417.008929 679.85278L875.956518 679.852765 875.956518 713.841902C875.956518 713.841902 394.524336 713.84188 392.910715 713.84188 361.537803 713.84188 345.121423 708.804036 335.282732 698.502151Z" p-id="2613"></path><path d="M366.061714 185.32922C373.550435 183.70987 381.32128 182.857143 389.28744 182.857143L831.878413 182.857143C892.452217 182.857143 931.033958 230.766036 918.052385 289.8681L873.327819 493.48858C860.346586 552.5891 800.71354 600.499536 740.217675 600.499536L424.410096 600.499536 419.518779 565.696004 739.763754 565.696004C780.460771 565.696004 819.812613 533.598784 828.156793 494.004857L871.286171 289.351823C879.625867 249.77917 853.683935 217.660676 813.333232 217.660676L389.445175 217.660676C383.050447 217.660676 376.848298 218.482764 370.938187 220.027128L366.061714 185.32922Z" p-id="2614"></path></svg>